# xmcd
# 
# Track frame offsets:
#     150
#     20781
#     34265
#     51111
#     66881
#     87513
#     110019
#     125444
#     139629
#     156939
#     176061
#     188107
# 
# Disc length: 2787
# 
# Revision: 0
# Processed by: cddbd v1.5.2PL0 Copyright (c) Steve Scherf et al.
# Submitted via: fre:ac v1.0.31
# 
DISCID=ad0ae10c
DTITLE=Gaelic Storm - The Boathouse
DYEAR=2013
DGENRE=Folk
TTITLE0=Yarmouth Town
TTITLE1=Girls Of Dublin Town
TTITLE2=Liverpool Judies
TTITLE3=My Son John
TTITLE4=Down To Old Maui
TTITLE5=Mingulay Boat Song
TTITLE6=Cape Cod Girls
TTITLE7=Weary Whaling Grounds
TTITLE8=Essequibo River
TTITLE9=Watery Grave
TTITLE10=Whiskey Johnny
TTITLE11=William Hollander
EXTD=
EXTT0=
EXTT1=
EXTT2=
EXTT3=
EXTT4=
EXTT5=
EXTT6=
EXTT7=
EXTT8=
EXTT9=
EXTT10=
EXTT11=
PLAYORDER=
